<?xml version="1.0" encoding="utf-8"?>
<!-- Generator: Adobe Illustrator 26.0.2, SVG Export Plug-In . SVG Version: 6.00 Build 0)  -->
<svg version="1.1" id="Layer_1" xmlns="http://www.w3.org/2000/svg" xmlns:xlink="http://www.w3.org/1999/xlink" x="0px" y="0px"
	 viewBox="0 0 256 256" style="enable-background:new 0 0 256 256;" xml:space="preserve">
<style type="text/css">
	.st0{fill:#66BB6A;}
	.st1{fill:#FFFFFF;}
	.st2{fill-rule:evenodd;clip-rule:evenodd;fill:#FFFFFF;}
	.st3{filter:url(#Adobe_OpacityMaskFilter);}
	.st4{fill-rule:evenodd;clip-rule:evenodd;}
	.st5{mask:url(#SVGID_1_);}
	.st6{clip-path:url(#SVGID_00000169525332140145976950000014655619785977814462_);}
	.st7{filter:url(#Adobe_OpacityMaskFilter_00000111891308121332181160000002669537715219046570_);}
	.st8{mask:url(#SVGID_00000093177996897138150940000006756345780918986391_);}
	.st9{clip-path:url(#SVGID_00000176029065951463027340000010892177520799965069_);}
	.st10{filter:url(#Adobe_OpacityMaskFilter_00000008132683435089101720000004902353542356071593_);}
	.st11{mask:url(#SVGID_00000029767316904747995290000006619285788764312964_);}
	.st12{clip-path:url(#SVGID_00000100361756744067231610000015655686188146625713_);}
	.st13{filter:url(#Adobe_OpacityMaskFilter_00000137117257392825868690000005949219633179836858_);}
	.st14{mask:url(#SVGID_00000138553342140575236570000008173240572797716870_);}
	.st15{clip-path:url(#SVGID_00000067226428349958866250000013823556585680644790_);}
	.st16{filter:url(#Adobe_OpacityMaskFilter_00000169554864242111859450000008137867129121651621_);}
	.st17{mask:url(#SVGID_00000057861893672029598390000007887178389665194143_);}
	.st18{clip-path:url(#SVGID_00000159465770235878034890000000884831157329083818_);}
	.st19{filter:url(#Adobe_OpacityMaskFilter_00000042718630419225011280000005312212008836068250_);}
	.st20{mask:url(#SVGID_00000034060158559385648500000012068022036167985597_);}
	.st21{clip-path:url(#SVGID_00000123437346001238499720000017699914500995769487_);}
</style>
<path class="st0" d="M205.9,256H50.1C22.5,256,0,233.5,0,205.9V50.1C0,22.5,22.5,0,50.1,0h155.8C233.5,0,256,22.5,256,50.1v155.8
	C256,233.5,233.5,256,205.9,256z"/>
<g>
	<g>
		<path class="st1" d="M200.4,91.6l-29.5-29.5c-3.2-3.2-7.6-5-12.1-5c-4.5,0-8.9,1.8-12.1,5l-9.3,9.4l-13.9-13.9
			c-0.3-0.4-0.6-0.7-1-1.1c-4.7-4.7-11.1-7.3-17.7-7.3h-0.1c-6.6,0-13,2.6-17.7,7.3c-0.3,0.3-0.7,0.7-1,1.1L57.6,86
			c-9.5,9.8-9.4,25.5,0.3,35.2s25.3,9.8,35.2,0.3l11.8-11.8l11.8,11.8c7.9,7.9,20,9.7,29.8,4.3c9.8-5.4,14.8-16.6,12.4-27.5
			l17.4,17.4c6.7,6.7,17.5,6.7,24.2,0C207.1,109.1,207.1,98.2,200.4,91.6L200.4,91.6z"/>
		<path class="st0" d="M146.4,115.9c-3.2,3.2-7.6,5-12.1,5c-4.5,0-8.9-1.8-12.1-5l-11.8-11.8l-5.6-5.6l-5.6,5.6l-11.8,11.8
			c-6.7,6.7-17.5,6.7-24.2,0c-6.7-6.7-6.7-17.5,0-24.2L91.9,63l0.1-0.2c0.2-0.3,0.5-0.5,0.7-0.7c3.2-3.2,7.5-5,12.1-5h0.1
			c4.5,0,8.9,1.8,12.1,5c0.2,0.2,0.4,0.4,0.7,0.7l0.1,0.2l28.6,28.6c3.2,3.2,5,7.6,5,12.1C151.4,108.3,149.6,112.7,146.4,115.9z"/>
	</g>
	<g>
		<g>
			<path class="st2" d="M175.6,176.5c7-3.1,7.1-9.1,7.1-9.3c0-3.9-1.6-6.2-3.1-6.3C178.3,160.9,176.3,168.3,175.6,176.5z M196.2,175
				h0.7c0,0,7.9,0.1,8.1,10.3c0,9.8-9.8,18.1-21.3,18.1c-1.9,0-17.5-0.5-18.7-19.2c-3.1-0.1-8.3-0.7-12.8-2.6
				c-4.4,10.9-11.3,19.5-15.4,19.5c-4.2,0-7.7-5.4-10.5-15.7l-0.3-1.1c-5.4,9.1-12.8,16.7-16.4,16.7c-4.3,0-9.5-5-9.5-9.7
				c0-4.7,1.5-16,1.5-16s-3.9,0.8-9.5,1.6c-1.1,5.4-7,27.5-30.1,27.5c-27.5,0-40.1-29.8-40.1-29.8c3.1-1.9,6.8-5.8,11.1-10.3
				c8.4-8.8,18.7-19.5,28.5-19.5c14.8,0,20,18.3,20,18.3l-1.2,2c0,0-4.8-6.2-16-6.2c-8.5,0-15,7.6-19.6,13.2c-1.5,1.8-2.8,3.4-4,4.4
				c0,0,11.7,18.4,26.9,18.4c8.1,0,16.8-7,21.8-17.6c-8.6,1.2-19.9,2.3-27.8,1.3c0,0-0.4-0.4-0.5-0.8c-0.3-0.5-0.3-1.1-0.3-1.1
				c28.1,0,49.1-11.7,51-12.9c0.1-0.1,0.3-0.1,0.4-0.1c1.8,0.4,0.9,6.6-0.1,13.1c-1.1,7.5-2.3,15.4,0.5,15.4c3,0,8.9-9.1,12.2-14.6
				c-1.2-5.9-2.3-11.5-3-14.5c-0.3-1.5-0.5-2.5-0.5-2.5v-0.4l0.3-0.1c0.1-0.1,5.9-2.4,9.5-2.4c2.7,0,4.3,1.5,4.3,4
				c0,1.6-0.8,5-2.3,9c0.9,8.6,4,16.5,5.4,20.4c0.3,0.7,0.5,1.2,0.6,1.6l0,0c1.5-1.8,6-7.1,8.7-13.4c-3.1-2.4-4.6-5.8-4.6-9.8
				c0-6.7,3.8-10.2,7.4-10.2c2.6,0,5.2,1.7,5.2,5.6c0,2.8-0.4,5.9-1.2,9.3c2.1,2,5.6,4.2,10.3,4.3c0.9-9.7,5.6-23.5,14.9-23.5
				c9.8,0,11.3,8.2,11.3,13.2c0,6.8-6.2,12.8-15.7,15c0.3,7.8,2.4,14.6,8.2,14.6c3.6,0,6.6-1.5,8.9-4.3c4-4.8,5-12.6,3.9-17.9
				L196.2,175z"/>
			<path class="st1" d="M102.2,159.9c0,0.3,0.1,0.4,0.4,0.5c5.5,0.8,9.1-0.9,9.1-9.8c0-8.3-8.6-1.7-10.2-0.5
				c-0.1,0.1-0.1,0.3-0.1,0.5C102.8,153.8,102.4,158.5,102.2,159.9"/>
			<defs>
				<filter id="Adobe_OpacityMaskFilter" filterUnits="userSpaceOnUse" x="21.7" y="145" width="183.2" height="59.6">
					<feColorMatrix  type="matrix" values="1 0 0 0 0  0 1 0 0 0  0 0 1 0 0  0 0 0 1 0"/>
				</filter>
			</defs>
			<mask maskUnits="userSpaceOnUse" x="21.7" y="145" width="183.2" height="59.6" id="SVGID_1_">
				<g class="st3">
					<path class="st4" d="M170.1,184.2c-2.7,0.3-5.2,0.1-5.2,0.1c0.4,5.4,1.8,9,3.8,11.8l9.8-0.8c-2.1-2.7-3-6.8-3.1-12.1
						C175.4,183.2,172.7,183.9,170.1,184.2z"/>
				</g>
			</mask>
			<g class="st5">
				<g>
					<defs>
						<rect id="SVGID_00000049903067936160667190000005003507216695213230_" x="21.7" y="145" width="183.2" height="59.6"/>
					</defs>
					<use xlink:href="#SVGID_00000049903067936160667190000005003507216695213230_"  style="overflow:visible;fill:#FFFFFF;"/>
					<clipPath id="SVGID_00000134234090760892837250000001802649828508997040_">
						<use xlink:href="#SVGID_00000049903067936160667190000005003507216695213230_"  style="overflow:visible;"/>
					</clipPath>
					<g style="clip-path:url(#SVGID_00000134234090760892837250000001802649828508997040_);">
						<g>
							<defs>
								<polygon id="SVGID_00000083785749825981685740000011951325144335374229_" points="179.9,196 178.3,181.6 163.4,183.4 
									165,197.7 								"/>
							</defs>
							<clipPath id="SVGID_00000005257558332315898040000011130227530607945121_">
								<use xlink:href="#SVGID_00000083785749825981685740000011951325144335374229_"  style="overflow:visible;"/>
							</clipPath>
							<g style="clip-path:url(#SVGID_00000005257558332315898040000011130227530607945121_);">
								
									<image style="overflow:visible;" width="70" height="68" xlink:href="5A8A9F48C31DF7C5.jpg"  transform="matrix(0.24 0 0 0.24 163.2 181.44)">
								</image>
							</g>
						</g>
					</g>
				</g>
			</g>
			<defs>
				
					<filter id="Adobe_OpacityMaskFilter_00000178182460611772232580000014348541590405552787_" filterUnits="userSpaceOnUse" x="21.7" y="145" width="183.2" height="59.6">
					<feColorMatrix  type="matrix" values="1 0 0 0 0  0 1 0 0 0  0 0 1 0 0  0 0 0 1 0"/>
				</filter>
			</defs>
			
				<mask maskUnits="userSpaceOnUse" x="21.7" y="145" width="183.2" height="59.6" id="SVGID_00000000198970155934344800000005656698925477441946_">
				<g style="filter:url(#Adobe_OpacityMaskFilter_00000178182460611772232580000014348541590405552787_);">
					<path d="M175.6,176.5c-2.1,1.3-8.5,2.2-10.7,2c0.3-3,1-7.2,2.7-11.7c1.3-0.3,7.3-0.3,9.1,2.2c-0.4,2.1-0.6,3.4-0.7,4.5
						C175.8,174.5,175.7,175.4,175.6,176.5z"/>
				</g>
			</mask>
			<g style="mask:url(#SVGID_00000000198970155934344800000005656698925477441946_);">
				<g>
					<defs>
						<rect id="SVGID_00000172427959231116681420000012423742758541028740_" x="21.7" y="145" width="183.2" height="59.6"/>
					</defs>
					<use xlink:href="#SVGID_00000172427959231116681420000012423742758541028740_"  style="overflow:visible;fill:#FFFFFF;"/>
					<clipPath id="SVGID_00000148639905350297457680000005326439780084704909_">
						<use xlink:href="#SVGID_00000172427959231116681420000012423742758541028740_"  style="overflow:visible;"/>
					</clipPath>
					<g style="clip-path:url(#SVGID_00000148639905350297457680000005326439780084704909_);">
						<g>
							<defs>
								<rect id="SVGID_00000031916000875984501460000015065887273969341076_" x="164.7" y="166.7" width="11.9" height="11.8"/>
							</defs>
							<clipPath id="SVGID_00000128442797800528195370000000960351053846535823_">
								<use xlink:href="#SVGID_00000031916000875984501460000015065887273969341076_"  style="overflow:visible;"/>
							</clipPath>
							<g style="clip-path:url(#SVGID_00000128442797800528195370000000960351053846535823_);">
								
									<image style="overflow:visible;" width="50" height="50" xlink:href="5A8A9F48C31DF7C7.jpg"  transform="matrix(0.24 0 0 0.24 164.64 166.56)">
								</image>
							</g>
						</g>
					</g>
				</g>
			</g>
			<defs>
				
					<filter id="Adobe_OpacityMaskFilter_00000179606339395996065220000008544871262315295136_" filterUnits="userSpaceOnUse" x="21.7" y="145" width="183.2" height="59.6">
					<feColorMatrix  type="matrix" values="1 0 0 0 0  0 1 0 0 0  0 0 1 0 0  0 0 0 1 0"/>
				</filter>
			</defs>
			
				<mask maskUnits="userSpaceOnUse" x="21.7" y="145" width="183.2" height="59.6" id="SVGID_00000112599879331273816620000004414909437365329318_">
				<g style="filter:url(#Adobe_OpacityMaskFilter_00000179606339395996065220000008544871262315295136_);">
					<path class="st4" d="M116.3,189.5c0.7,1.6,1.4,3.5,2.2,5.1c1.3-1.5,2.8-3.2,4.5-5.7c1-1.5,2.1-3.1,2.9-4.5l-1.3-6.7
						C122.5,181.4,118.8,186.9,116.3,189.5z"/>
				</g>
			</mask>
			<g style="mask:url(#SVGID_00000112599879331273816620000004414909437365329318_);">
				<g>
					<defs>
						<rect id="SVGID_00000106118483291733826340000015127375600570893443_" x="21.7" y="145" width="183.2" height="59.6"/>
					</defs>
					<use xlink:href="#SVGID_00000106118483291733826340000015127375600570893443_"  style="overflow:visible;fill:#FFFFFF;"/>
					<clipPath id="SVGID_00000134955391960072130860000000787739142135510448_">
						<use xlink:href="#SVGID_00000106118483291733826340000015127375600570893443_"  style="overflow:visible;"/>
					</clipPath>
					<g style="clip-path:url(#SVGID_00000134955391960072130860000000787739142135510448_);">
						<g>
							<defs>
								<polygon id="SVGID_00000003802453924881659460000001129116452632317876_" points="117.2,197.6 131,192.9 125,174.8 
									111.2,179.5 								"/>
							</defs>
							<clipPath id="SVGID_00000036957873982474249210000004848556956525574803_">
								<use xlink:href="#SVGID_00000003802453924881659460000001129116452632317876_"  style="overflow:visible;"/>
							</clipPath>
							<g style="clip-path:url(#SVGID_00000036957873982474249210000004848556956525574803_);">
								
									<image style="overflow:visible;" width="84" height="96" xlink:href="5A8A9F48C31DF7C2.jpg"  transform="matrix(0.24 0 0 0.24 111.12 174.72)">
								</image>
							</g>
						</g>
					</g>
				</g>
			</g>
			<defs>
				
					<filter id="Adobe_OpacityMaskFilter_00000091711631049154712400000001059437395890051467_" filterUnits="userSpaceOnUse" x="21.7" y="145" width="183.2" height="59.6">
					<feColorMatrix  type="matrix" values="1 0 0 0 0  0 1 0 0 0  0 0 1 0 0  0 0 0 1 0"/>
				</filter>
			</defs>
			
				<mask maskUnits="userSpaceOnUse" x="21.7" y="145" width="183.2" height="59.6" id="SVGID_00000102511702038850932500000001262681735096559792_">
				<g style="filter:url(#Adobe_OpacityMaskFilter_00000091711631049154712400000001059437395890051467_);">
					<path class="st4" d="M141.4,189.8c0.9,1.3,2.7,3.1,3.9,4.4c1-1.4,2-3,3.1-4.7c1.5-2.5,2.8-5.3,3.8-7.8c0,0-1.3-0.5-2.4-1.1
						s-2-1.3-2-1.3C145.8,183.7,143.3,187.3,141.4,189.8z"/>
				</g>
			</mask>
			<g style="mask:url(#SVGID_00000102511702038850932500000001262681735096559792_);">
				<g>
					<defs>
						<rect id="SVGID_00000077302977658605716590000011621239449393013168_" x="21.7" y="145" width="183.2" height="59.6"/>
					</defs>
					<use xlink:href="#SVGID_00000077302977658605716590000011621239449393013168_"  style="overflow:visible;fill:#FFFFFF;"/>
					<clipPath id="SVGID_00000157275081844004013390000015379653057583342743_">
						<use xlink:href="#SVGID_00000077302977658605716590000011621239449393013168_"  style="overflow:visible;"/>
					</clipPath>
					<g style="clip-path:url(#SVGID_00000157275081844004013390000015379653057583342743_);">
						<g>
							<defs>
								<polygon id="SVGID_00000065754974119733304990000003110389410558328473_" points="149.6,198.8 158.6,182.8 144.1,174.6 
									135.1,190.5 								"/>
							</defs>
							<clipPath id="SVGID_00000127762351720937971310000016968351006937963947_">
								<use xlink:href="#SVGID_00000065754974119733304990000003110389410558328473_"  style="overflow:visible;"/>
							</clipPath>
							<g style="clip-path:url(#SVGID_00000127762351720937971310000016968351006937963947_);">
								
									<image style="overflow:visible;" width="99" height="102" xlink:href="5A8A9F48C31DF7C3.jpg"  transform="matrix(0.24 0 0 0.24 134.88 174.48)">
								</image>
							</g>
						</g>
					</g>
				</g>
			</g>
			<defs>
				
					<filter id="Adobe_OpacityMaskFilter_00000155862041103637511560000008359573374738962355_" filterUnits="userSpaceOnUse" x="21.7" y="145" width="183.2" height="59.6">
					<feColorMatrix  type="matrix" values="1 0 0 0 0  0 1 0 0 0  0 0 1 0 0  0 0 0 1 0"/>
				</filter>
			</defs>
			
				<mask maskUnits="userSpaceOnUse" x="21.7" y="145" width="183.2" height="59.6" id="SVGID_00000034768039417405874570000017186794355878949538_">
				<g style="filter:url(#Adobe_OpacityMaskFilter_00000155862041103637511560000008359573374738962355_);">
					<path class="st4" d="M151.6,167.9c0,0-0.9,2.8,3,6.3c0.7-2.8,1-5.5,1.2-8.1L151.6,167.9z"/>
				</g>
			</mask>
			<g style="mask:url(#SVGID_00000034768039417405874570000017186794355878949538_);">
				<g>
					<defs>
						<rect id="SVGID_00000127744825857792230260000010161439709689783716_" x="21.7" y="145" width="183.2" height="59.6"/>
					</defs>
					<use xlink:href="#SVGID_00000127744825857792230260000010161439709689783716_"  style="overflow:visible;fill:#FFFFFF;"/>
					<clipPath id="SVGID_00000093142770457636144960000012446745875154374017_">
						<use xlink:href="#SVGID_00000127744825857792230260000010161439709689783716_"  style="overflow:visible;"/>
					</clipPath>
					<g style="clip-path:url(#SVGID_00000093142770457636144960000012446745875154374017_);">
						<g>
							<defs>
								<polygon id="SVGID_00000000213195149641285110000014867386998577343151_" points="151.1,164.7 148.8,173.6 155.5,175.3 
									157.9,166.6 								"/>
							</defs>
							<clipPath id="SVGID_00000012429991136354454430000005963356508433672107_">
								<use xlink:href="#SVGID_00000000213195149641285110000014867386998577343151_"  style="overflow:visible;"/>
							</clipPath>
							<g style="clip-path:url(#SVGID_00000012429991136354454430000005963356508433672107_);">
								
									<image style="overflow:visible;" width="39" height="45" xlink:href="5A8A9F48C31DF7CD.jpg"  transform="matrix(0.24 0 0 0.24 148.56 164.64)">
								</image>
							</g>
						</g>
					</g>
				</g>
			</g>
			<defs>
				
					<filter id="Adobe_OpacityMaskFilter_00000140713551902301363370000002428762975864904893_" filterUnits="userSpaceOnUse" x="21.7" y="145" width="183.2" height="59.6">
					<feColorMatrix  type="matrix" values="1 0 0 0 0  0 1 0 0 0  0 0 1 0 0  0 0 0 1 0"/>
				</filter>
			</defs>
			
				<mask maskUnits="userSpaceOnUse" x="21.7" y="145" width="183.2" height="59.6" id="SVGID_00000182495614068952155990000012391439020294286733_">
				<g style="filter:url(#Adobe_OpacityMaskFilter_00000140713551902301363370000002428762975864904893_);">
					<path class="st4" d="M89.1,177.5c-2.5,5.4-5.7,9.5-9.6,12.7l5.7,2.6c3-4.2,4.6-8.2,5.6-11.5l0.6-2L92,177L89.1,177.5z"/>
				</g>
			</mask>
			<g style="mask:url(#SVGID_00000182495614068952155990000012391439020294286733_);">
				<g>
					<defs>
						<rect id="SVGID_00000117658817496675209910000011843806491504448387_" x="21.7" y="145" width="183.2" height="59.6"/>
					</defs>
					<use xlink:href="#SVGID_00000117658817496675209910000011843806491504448387_"  style="overflow:visible;fill:#FFFFFF;"/>
					<clipPath id="SVGID_00000064355653100927432460000018427920521120297111_">
						<use xlink:href="#SVGID_00000117658817496675209910000011843806491504448387_"  style="overflow:visible;"/>
					</clipPath>
					<g style="clip-path:url(#SVGID_00000064355653100927432460000018427920521120297111_);">
						<g>
							<defs>
								<polygon id="SVGID_00000103961767063294331310000010440153621631435160_" points="80.6,177.8 92.5,176.8 92,193.1 
									79.3,192.6 								"/>
							</defs>
							<clipPath id="SVGID_00000080912528446414918840000006148232014360428723_">
								<use xlink:href="#SVGID_00000103961767063294331310000010440153621631435160_"  style="overflow:visible;"/>
							</clipPath>
							<g style="clip-path:url(#SVGID_00000080912528446414918840000006148232014360428723_);">
								
									<image style="overflow:visible;" width="56" height="69" xlink:href="5A8A9F48C31DF7CF.jpg"  transform="matrix(0.24 0 0 0.24 79.2 176.64)">
								</image>
							</g>
						</g>
					</g>
				</g>
			</g>
		</g>
		<g>
			<g>
				<path class="st1" d="M225.8,160.1h-14.2c-4.6,0-8.4-3.8-8.4-8.4s3.8-8.4,8.4-8.4h14.2c4.6,0,8.4,3.8,8.4,8.4
					S230.5,160.1,225.8,160.1z M211.6,144.9c-3.7,0-6.7,3-6.7,6.7c0,3.7,3,6.7,6.7,6.7h14.2c3.7,0,6.7-3,6.7-6.7
					c0-3.7-3-6.7-6.7-6.7H211.6z"/>
			</g>
			<g>
				<path class="st1" d="M218.2,155.6h-1.9l-1.1-4.1c0-0.1-0.1-0.4-0.2-0.9c-0.1-0.5-0.1-0.8-0.2-0.9c0,0.2-0.1,0.5-0.2,0.9
					c-0.1,0.4-0.2,0.7-0.2,0.9l-1.1,4.1h-1.9l-2-7.8h1.6l1,4.3c0.2,0.8,0.3,1.5,0.4,2.1c0-0.2,0.1-0.5,0.1-0.9
					c0.1-0.4,0.2-0.8,0.2-1l1.1-4.4h1.6l1.1,4.4c0,0.2,0.1,0.5,0.2,0.9c0.1,0.4,0.1,0.7,0.2,1c0-0.3,0.1-0.6,0.2-1
					c0.1-0.4,0.1-0.8,0.2-1l1-4.3h1.6C220.2,147.7,218.2,155.6,218.2,155.6z M223.7,151.4h0.5c0.5,0,0.9-0.1,1.1-0.3
					c0.3-0.2,0.4-0.5,0.4-0.9c0-0.4-0.1-0.7-0.3-0.9c-0.2-0.2-0.5-0.3-1-0.3h-0.8V151.4z M227.4,150.2c0,0.8-0.3,1.5-0.8,1.9
					c-0.5,0.4-1.3,0.7-2.2,0.7h-0.7v2.8H222v-7.8h2.5c1,0,1.7,0.2,2.2,0.6C227.2,148.8,227.4,149.4,227.4,150.2L227.4,150.2z"/>
			</g>
		</g>
	</g>
</g>
</svg>
